<svg width="24" height="21" viewBox="0 0 24 21" fill="none" xmlns="http://www.w3.org/2000/svg">
<path d="M1.06296 17.8287C0.416064 18.3462 0.311182 19.2901 0.828697 19.937C1.34621 20.5839 2.29015 20.6888 2.93704 20.1713L1.06296 17.8287ZM23.4908 3.16565C23.5823 2.34229 22.989 1.60066 22.1656 1.50918L8.74821 0.0183502C7.92485 -0.0731343 7.18323 0.520168 7.09174 1.34353C7.00026 2.16689 7.59356 2.90852 8.41692 3L20.3435 4.32518L19.0183 16.2518C18.9269 17.0751 19.5202 17.8168 20.3435 17.9083C21.1669 17.9997 21.9085 17.4064 22 16.5831L23.4908 3.16565ZM2.93704 20.1713L22.937 4.17131L21.063 1.8287L1.06296 17.8287L2.93704 20.1713Z" fill="white"/>
</svg>
