<svg width="29" height="28" viewBox="0 0 29 28" fill="none" xmlns="http://www.w3.org/2000/svg">
<path d="M10.8181 26.7727C11.4959 26.7727 12.0454 26.2232 12.0454 25.5454C12.0454 24.8676 11.4959 24.3181 10.8181 24.3181C10.1403 24.3181 9.59082 24.8676 9.59082 25.5454C9.59082 26.2232 10.1403 26.7727 10.8181 26.7727Z" stroke="white" stroke-width="2" stroke-linecap="round" stroke-linejoin="round"/>
<path d="M24.3181 26.7727C24.9959 26.7727 25.5454 26.2232 25.5454 25.5454C25.5454 24.8676 24.9959 24.3181 24.3181 24.3181C23.6403 24.3181 23.0908 24.8676 23.0908 25.5454C23.0908 26.2232 23.6403 26.7727 24.3181 26.7727Z" stroke="white" stroke-width="2" stroke-linecap="round" stroke-linejoin="round"/>
<path d="M1 1H5.90909L9.19818 17.4332C9.31041 17.9982 9.6178 18.5058 10.0665 18.867C10.5153 19.2282 11.0768 19.4201 11.6527 19.4091H23.5818C24.1578 19.4201 24.7193 19.2282 25.168 18.867C25.6168 18.5058 25.9241 17.9982 26.0364 17.4332L28 7.13636H7.13636" stroke="white" stroke-width="2" stroke-linecap="round" stroke-linejoin="round"/>
</svg>
