<svg width="44" height="43" fill="none" xmlns="http://www.w3.org/2000/svg"><path d="M31.267 38.417c-.54.312-1.34.374-2.48-.028-1.135-.4-2.476-1.222-3.935-2.451-2.914-2.453-6.131-6.384-8.924-11.221-2.793-4.837-4.588-9.59-5.256-13.338-.335-1.88-.376-3.451-.155-4.634.221-1.188.676-1.85 1.216-2.162.54-.312 1.34-.374 2.48.028 1.135.4 2.475 1.222 3.935 2.451 2.913 2.453 6.131 6.384 8.924 11.221 2.793 4.837 4.588 9.59 5.256 13.338.334 1.88.376 3.451.155 4.634-.221 1.188-.676 1.85-1.216 2.162z" stroke="#F5F5F5" stroke-width="2"/><path d="M31.278 4.583c.54.312.995.974 1.216 2.162.22 1.183.18 2.754-.155 4.633-.668 3.75-2.463 8.502-5.256 13.339-2.792 4.837-6.01 8.768-8.923 11.22-1.46 1.23-2.8 2.052-3.936 2.452-1.14.402-1.94.34-2.48.028s-.994-.974-1.216-2.162c-.22-1.183-.18-2.755.155-4.634.668-3.749 2.463-8.5 5.256-13.338 2.793-4.837 6.01-8.768 8.924-11.22 1.46-1.23 2.8-2.052 3.935-2.452 1.14-.403 1.94-.34 2.48-.028z" stroke="#F5F5F5" stroke-width="2"/><path d="M38.417 31.267c-.312.54-.974.995-2.162 1.216-1.183.22-2.754.18-4.633-.155-3.75-.668-8.502-2.463-13.339-5.256s-8.768-6.01-11.22-8.924c-1.23-1.46-2.052-2.8-2.452-3.935-.402-1.14-.34-1.94-.028-2.48s.974-.995 2.162-1.216c1.183-.22 2.755-.18 4.634.155 3.749.668 8.5 2.463 13.338 5.256 4.837 2.793 8.768 6.01 11.22 8.924 1.23 1.46 2.052 2.8 2.452 3.935.402 1.14.34 1.94.028 2.48z" stroke="#F5F5F5" stroke-width="2"/><path d="M38.428 11.733c.312.54.375 1.34-.027 2.48-.401 1.135-1.223 2.476-2.452 3.935-2.453 2.914-6.384 6.131-11.22 8.924-4.838 2.793-9.59 4.588-13.34 5.256-1.878.334-3.45.376-4.633.155-1.188-.221-1.85-.676-2.162-1.216-.312-.54-.374-1.34.028-2.48.4-1.135 1.222-2.475 2.451-3.935 2.453-2.913 6.384-6.131 11.221-8.924 4.837-2.793 9.59-4.588 13.339-5.256 1.879-.334 3.45-.376 4.634-.155 1.187.222 1.85.676 2.161 1.216z" stroke="#F5F5F5" stroke-width="2"/><path d="M41.124 21.497c0 .615-.343 1.333-1.262 2.115-.915.778-2.297 1.524-4.093 2.17-3.584 1.289-8.6 2.105-14.19 2.105-5.588 0-10.605-.816-14.188-2.105-1.796-.646-3.18-1.392-4.094-2.17-.919-.782-1.262-1.5-1.262-2.115 0-.615.343-1.333 1.262-2.115.915-.778 2.298-1.524 4.094-2.17 3.583-1.289 8.6-2.105 14.189-2.105s10.605.816 14.189 2.105c1.796.646 3.178 1.392 4.093 2.17.92.782 1.262 1.5 1.262 2.115z" stroke="#F5F5F5" stroke-width="2"/></svg>