<svg width="26" height="26" viewBox="0 0 26 26" fill="none" xmlns="http://www.w3.org/2000/svg">
<mask id="path-1-inside-1_42_1137" fill="white">
<path fill-rule="evenodd" clip-rule="evenodd" d="M0 12.6833C0 5.80766 5.9527 0 13 0C20.0473 0 26 5.80766 26 12.6833C26 16.7292 23.9304 20.3921 20.8 22.7335V22.8299H20.6674C18.499 24.4089 15.8431 25.3665 13 25.3665C10.1569 25.3665 7.501 24.4089 5.3326 22.8299H5.2V22.7335C2.0696 20.3921 0 16.7279 0 12.6833ZM9.26051 19.3242C8.569 19.867 8.08777 20.6235 7.8962 21.4689C9.4146 22.3276 11.1592 22.8299 13 22.8299C14.8408 22.8299 16.5854 22.3276 18.1038 21.4689C17.912 20.6236 17.4307 19.8672 16.7393 19.3245C16.0478 18.7817 15.1874 18.485 14.3 18.4833H11.7C10.8125 18.4848 9.95201 18.7814 9.26051 19.3242ZM17.8981 17.0104C18.964 17.7025 19.7971 18.6861 20.293 19.8379C22.2001 17.9874 23.4 15.4431 23.4 12.6833C23.4 7.18253 18.6381 2.53665 13 2.53665C7.3619 2.53665 2.6 7.18253 2.6 12.6833C2.6 15.4431 3.7999 17.9874 5.707 19.8379C6.20288 18.6861 7.03595 17.7025 8.10195 17.0104C9.16795 16.3182 10.4195 15.9482 11.7 15.9467H14.3C15.5805 15.9482 16.8321 16.3182 17.8981 17.0104ZM7.80004 10.1466C7.80004 7.25484 10.036 5.07332 13 5.07332C15.964 5.07332 18.2 7.25484 18.2 10.1466C18.2 13.0384 15.964 15.2199 13 15.2199C10.036 15.2199 7.80004 13.0384 7.80004 10.1466ZM10.4 10.1466C10.4 11.6407 11.4686 12.6833 13 12.6833C14.5314 12.6833 15.6 11.6407 15.6 10.1466C15.6 8.65253 14.5314 7.60997 13 7.60997C11.4686 7.60997 10.4 8.65253 10.4 10.1466Z"/>
</mask>
<path fill-rule="evenodd" clip-rule="evenodd" d="M0 12.6833C0 5.80766 5.9527 0 13 0C20.0473 0 26 5.80766 26 12.6833C26 16.7292 23.9304 20.3921 20.8 22.7335V22.8299H20.6674C18.499 24.4089 15.8431 25.3665 13 25.3665C10.1569 25.3665 7.501 24.4089 5.3326 22.8299H5.2V22.7335C2.0696 20.3921 0 16.7279 0 12.6833ZM9.26051 19.3242C8.569 19.867 8.08777 20.6235 7.8962 21.4689C9.4146 22.3276 11.1592 22.8299 13 22.8299C14.8408 22.8299 16.5854 22.3276 18.1038 21.4689C17.912 20.6236 17.4307 19.8672 16.7393 19.3245C16.0478 18.7817 15.1874 18.485 14.3 18.4833H11.7C10.8125 18.4848 9.95201 18.7814 9.26051 19.3242ZM17.8981 17.0104C18.964 17.7025 19.7971 18.6861 20.293 19.8379C22.2001 17.9874 23.4 15.4431 23.4 12.6833C23.4 7.18253 18.6381 2.53665 13 2.53665C7.3619 2.53665 2.6 7.18253 2.6 12.6833C2.6 15.4431 3.7999 17.9874 5.707 19.8379C6.20288 18.6861 7.03595 17.7025 8.10195 17.0104C9.16795 16.3182 10.4195 15.9482 11.7 15.9467H14.3C15.5805 15.9482 16.8321 16.3182 17.8981 17.0104ZM7.80004 10.1466C7.80004 7.25484 10.036 5.07332 13 5.07332C15.964 5.07332 18.2 7.25484 18.2 10.1466C18.2 13.0384 15.964 15.2199 13 15.2199C10.036 15.2199 7.80004 13.0384 7.80004 10.1466ZM10.4 10.1466C10.4 11.6407 11.4686 12.6833 13 12.6833C14.5314 12.6833 15.6 11.6407 15.6 10.1466C15.6 8.65253 14.5314 7.60997 13 7.60997C11.4686 7.60997 10.4 8.65253 10.4 10.1466Z" fill="white"/>
<path d="M20.8 22.7335L20.2011 21.9327L19.8 22.2326V22.7335H20.8ZM20.8 22.8299V23.8299H21.8V22.8299H20.8ZM20.6674 22.8299V21.8299H20.3419L20.0787 22.0215L20.6674 22.8299ZM5.3326 22.8299L5.92127 22.0215L5.65813 21.8299H5.3326V22.8299ZM5.2 22.8299H4.2V23.8299H5.2V22.8299ZM5.2 22.7335H6.2V22.2326L5.79894 21.9327L5.2 22.7335ZM7.8962 21.4689L6.92092 21.248L6.75657 21.9733L7.40396 22.3394L7.8962 21.4689ZM9.26051 19.3242L8.64308 18.5376L8.64308 18.5376L9.26051 19.3242ZM18.1038 21.4689L18.596 22.3394L19.2436 21.9732L19.079 21.2477L18.1038 21.4689ZM14.3 18.4833L14.302 17.4833H14.3V18.4833ZM11.7 18.4833V17.4833L11.6983 17.4833L11.7 18.4833ZM20.293 19.8379L19.3745 20.2333L19.9482 21.5658L20.9894 20.5556L20.293 19.8379ZM17.8981 17.0104L17.3535 17.8491V17.8491L17.8981 17.0104ZM5.707 19.8379L5.01063 20.5556L6.05181 21.5658L6.6255 20.2333L5.707 19.8379ZM8.10195 17.0104L8.64652 17.8491L8.64652 17.8491L8.10195 17.0104ZM11.7 15.9467V14.9467L11.6988 14.9467L11.7 15.9467ZM14.3 15.9467L14.3012 14.9467H14.3V15.9467ZM13 -1C5.42381 -1 -1 5.23227 -1 12.6833H1C1 6.38306 6.48159 1 13 1V-1ZM27 12.6833C27 5.23227 20.5762 -1 13 -1V1C19.5184 1 25 6.38306 25 12.6833H27ZM21.3989 23.5343C24.7535 21.0253 27 17.0781 27 12.6833H25C25 16.3803 23.1073 19.759 20.2011 21.9327L21.3989 23.5343ZM21.8 22.8299V22.7335H19.8V22.8299H21.8ZM20.6674 23.8299H20.8V21.8299H20.6674V23.8299ZM13 26.3665C16.0707 26.3665 18.9301 25.332 21.2561 23.6382L20.0787 22.0215C18.0679 23.4858 15.6155 24.3665 13 24.3665V26.3665ZM4.74393 23.6382C7.06988 25.332 9.92928 26.3665 13 26.3665V24.3665C10.3845 24.3665 7.93212 23.4858 5.92127 22.0215L4.74393 23.6382ZM5.2 23.8299H5.3326V21.8299H5.2V23.8299ZM4.2 22.7335V22.8299H6.2V22.7335H4.2ZM-1 12.6833C-1 17.0768 1.24645 21.0252 4.60106 23.5343L5.79894 21.9327C2.89275 19.759 1 16.3791 1 12.6833H-1ZM8.87148 21.6899C9.01151 21.0719 9.36438 20.5139 9.87794 20.1108L8.64308 18.5376C7.77362 19.22 7.16404 20.175 6.92092 21.248L8.87148 21.6899ZM13 21.8299C11.343 21.8299 9.7668 21.3779 8.38844 20.5985L7.40396 22.3394C9.0624 23.2773 10.9754 23.8299 13 23.8299V21.8299ZM17.6116 20.5985C16.2332 21.3779 14.657 21.8299 13 21.8299V23.8299C15.0246 23.8299 16.9376 23.2773 18.596 22.3394L17.6116 20.5985ZM16.1218 20.1111C16.6354 20.5142 16.9884 21.0722 17.1286 21.6902L19.079 21.2477C18.8356 20.175 18.226 19.2202 17.3567 18.5378L16.1218 20.1111ZM14.298 19.4833C14.9646 19.4846 15.6078 19.7076 16.1218 20.1111L17.3567 18.5378C16.4878 17.8559 15.4103 17.4855 14.302 17.4833L14.298 19.4833ZM11.7 19.4833H14.3V17.4833H11.7V19.4833ZM9.87794 20.1108C10.392 19.7074 11.0352 19.4844 11.7017 19.4833L11.6983 17.4833C10.5898 17.4852 9.51207 17.8555 8.64308 18.5376L9.87794 20.1108ZM21.2115 19.4424C20.6364 18.1066 19.6719 16.9699 18.4426 16.1717L17.3535 17.8491C18.2562 18.4352 18.9579 19.2656 19.3745 20.2333L21.2115 19.4424ZM22.4 12.6833C22.4 15.1476 21.3284 17.4399 19.5966 19.1202L20.9894 20.5556C23.0718 18.5349 24.4 15.7386 24.4 12.6833H22.4ZM13 3.53665C18.1092 3.53665 22.4 7.75792 22.4 12.6833H24.4C24.4 6.60713 19.167 1.53665 13 1.53665V3.53665ZM3.6 12.6833C3.6 7.75792 7.89079 3.53665 13 3.53665V1.53665C6.83301 1.53665 1.6 6.60713 1.6 12.6833H3.6ZM6.40337 19.1202C4.67162 17.4399 3.6 15.1476 3.6 12.6833H1.6C1.6 15.7386 2.92818 18.5349 5.01063 20.5556L6.40337 19.1202ZM7.55738 16.1717C6.32807 16.9699 5.36362 18.1066 4.7885 19.4424L6.6255 20.2333C7.04214 19.2656 7.74383 18.4352 8.64652 17.8491L7.55738 16.1717ZM11.6988 14.9467C10.2269 14.9485 8.78642 15.3737 7.55738 16.1717L8.64652 17.8491C9.54947 17.2628 10.6121 16.948 11.7012 16.9467L11.6988 14.9467ZM14.3 14.9467H11.7V16.9467H14.3V14.9467ZM18.4426 16.1717C17.2136 15.3737 15.7731 14.9485 14.3012 14.9467L14.2988 16.9467C15.3879 16.948 16.4505 17.2628 17.3535 17.8491L18.4426 16.1717ZM13 4.07332C9.50715 4.07332 6.80004 6.67944 6.80004 10.1466H8.80004C8.80004 7.83023 10.5649 6.07332 13 6.07332V4.07332ZM19.2 10.1466C19.2 6.67944 16.4929 4.07332 13 4.07332V6.07332C15.4351 6.07332 17.2 7.83023 17.2 10.1466H19.2ZM13 16.2199C16.4929 16.2199 19.2 13.6138 19.2 10.1466H17.2C17.2 12.463 15.4351 14.2199 13 14.2199V16.2199ZM6.80004 10.1466C6.80004 13.6138 9.50715 16.2199 13 16.2199V14.2199C10.5649 14.2199 8.80004 12.463 8.80004 10.1466H6.80004ZM13 11.6833C12.4656 11.6833 12.0757 11.5049 11.8241 11.2595C11.5743 11.0158 11.4 10.6472 11.4 10.1466H9.40004C9.40004 11.1401 9.76006 12.0399 10.4274 12.691C11.093 13.3404 12.0031 13.6833 13 13.6833V11.6833ZM14.6 10.1466C14.6 10.6472 14.4258 11.0158 14.176 11.2595C13.9244 11.5049 13.5345 11.6833 13 11.6833V13.6833C13.997 13.6833 14.9071 13.3404 15.5726 12.691C16.24 12.0399 16.6 11.1401 16.6 10.1466H14.6ZM13 8.60997C13.5345 8.60997 13.9244 8.78833 14.176 9.03378C14.4258 9.27748 14.6 9.64602 14.6 10.1466H16.6C16.6 9.15314 16.24 8.25335 15.5726 7.60224C14.9071 6.95289 13.997 6.60997 13 6.60997V8.60997ZM11.4 10.1466C11.4 9.64602 11.5743 9.27748 11.8241 9.03378C12.0757 8.78833 12.4656 8.60997 13 8.60997V6.60997C12.0031 6.60997 11.093 6.95289 10.4274 7.60224C9.76006 8.25335 9.40004 9.15314 9.40004 10.1466H11.4Z" fill="white" mask="url(#path-1-inside-1_42_1137)"/>
</svg>
